# xmcd
#
# Track frame offsets:
# 200
# 12817
# 30967
# 40325
# 57530
# 76195
# 87580
# 101790
# 121127
# 130122
# 137265
# 163427
# 170905
# 193917
# 211272
# 229230
#
# Disc length: 3107 seconds
#
#
# Revision: 1
# Processed by: cddbd v1.5.1PL2 Copyright (c) Steve Scherf et al.
# Submitted via: FreeRIP 2.942 
#
DISCID=db0c2110
DTITLE=Lost Soul Band - Friday the 13th and Everything's Rosie
DYEAR=1900
DGENRE=Country
TTITLE0=Country Boy
TTITLE1=When You're Gone
TTITLE2=Leaving
TTITLE3=The Last Train
TTITLE4=H
TTITLE5=I Don't Fear (I'm Not Alone)
TTITLE6=The Castration Song
TTITLE7=Jane
TTITLE8=Last Time I Saw You
TTITLE9=Jeanie
TTITLE10=Strung Out Sister
TTITLE11=Half the Time
TTITLE12=If This is Love It's Not Enough
TTITLE13=When the Dirt Comes Falling Down
TTITLE14=Almost Here
TTITLE15=I Love You
EXTD=The album is from a Scottish country/indie band from the early 90s.
EXTT0=
EXTT1=
EXTT2=
EXTT3=
EXTT4=
EXTT5=
EXTT6=
EXTT7=
EXTT8=
EXTT9=
EXTT10=
EXTT11=
EXTT12=
EXTT13=
EXTT14=
EXTT15=
PLAYORDER=
